<svg xmlns="http://www.w3.org/2000/svg" viewBox="0 0 2048 850" role="img" aria-labelledby="title desc">
  <title id="title">Power management dashboard screen example</title>
  <desc id="desc">A power management dashboard with sidebar, KPI cards, gauges, equipment performance bars, and charts.</desc>
  <defs>
    <linearGradient id="side" x1="0" y1="0" x2="0" y2="1">
      <stop offset="0" stop-color="#5578e8"/>
      <stop offset="1" stop-color="#2f55c6"/>
    </linearGradient>
    <linearGradient id="bar" x1="0" y1="0" x2="1" y2="0">
      <stop offset="0" stop-color="#4f73e0"/>
      <stop offset="1" stop-color="#34c6d4"/>
    </linearGradient>
    <filter id="shadow" x="-15%" y="-15%" width="130%" height="130%">
      <feDropShadow dx="0" dy="2" stdDeviation="4" flood-color="#1f2937" flood-opacity="0.12"/>
    </filter>
  </defs>
  <rect width="2048" height="850" fill="#f5f7fb"/>
  <rect x="0" y="0" width="2048" height="30" fill="#fff"/>
  <text x="10" y="21" font-family="Arial, sans-serif" font-size="22" fill="#333">←</text>
  <text x="42" y="21" font-family="Arial, sans-serif" font-size="14" fill="#333">127.0.0.1:2000/dashboard</text>
  <rect x="0" y="30" width="186" height="820" fill="url(#side)"/>
  <circle cx="47" cy="58" r="13" fill="#2f7ef2"/>
  <text x="72" y="65" font-family="Arial, sans-serif" font-size="15" font-weight="700" fill="#2f2f7a">test_user</text>
  <line x1="15" y1="88" x2="172" y2="88" stroke="#315ac8"/>
  <g font-family="Arial, sans-serif" font-size="12" font-weight="700" fill="#eef5ff">
    <text x="16" y="116">☁ 대시보드</text>
    <text x="16" y="184">모니터링</text>
    <text x="16" y="215">▣ 모니터링  ›</text>
    <text x="16" y="282">설비운영관리</text>
    <text x="16" y="313">◼ 설비운영관리  ›</text>
    <text x="16" y="380">기준정보관리</text>
    <text x="16" y="411">⚙ 기준정보관리  ›</text>
  </g>
  <rect x="186" y="30" width="1862" height="42" fill="#fff"/>
  <rect x="212" y="37" width="270" height="30" rx="15" fill="#f6f7fb"/>
  <text x="228" y="57" font-family="Arial, sans-serif" font-size="13" fill="#7b8494">검색...</text>
  <rect x="493" y="36" width="44" height="30" rx="9" fill="#007faf"/>
  <text x="508" y="57" font-family="Arial, sans-serif" font-size="16" fill="#fff">⌕</text>
  <rect x="1893" y="32" width="39" height="39" rx="10" fill="#007faf"/>
  <text x="1907" y="58" font-family="Arial, sans-serif" font-size="18" fill="#fff">🔔</text>
  <circle cx="1925" cy="38" r="7" fill="#ef4444"/>
  <text x="1922" y="42" font-family="Arial, sans-serif" font-size="9" fill="#fff">2</text>
  <text x="1938" y="55" font-family="Arial, sans-serif" font-size="12" fill="#374151">test_user 🌿 Profile⌄</text>
  <g transform="translate(195 74)" font-family="Arial, sans-serif" filter="url(#shadow)">
    <g>
      <rect width="350" height="49" rx="11" fill="#2d293e"/>
      <circle cx="36" cy="24" r="13" fill="#fff"/>
      <text x="29" y="30" font-size="18" fill="#2d293e">⚡</text>
      <text x="57" y="18" font-size="11" font-weight="700" fill="#fff">사용량 <tspan fill="#35d884">+2.5% ▲</tspan></text>
      <text x="57" y="37" font-size="17" font-weight="700" fill="#fff">1525.00 <tspan font-size="10">kwh</tspan></text>
    </g>
    <g transform="translate(380 0)">
      <rect width="350" height="49" rx="11" fill="#2d293e"/>
      <circle cx="36" cy="24" r="13" fill="#fff"/>
      <text x="29" y="30" font-size="17" fill="#2d293e">▣</text>
      <text x="57" y="18" font-size="11" font-weight="700" fill="#fff">예상전기요금 <tspan fill="#35d884">+8.7% ▲</tspan></text>
      <text x="57" y="37" font-size="17" font-weight="700" fill="#fff">228750 <tspan font-size="10">원</tspan></text>
    </g>
    <g transform="translate(760 0)">
      <rect width="350" height="49" rx="11" fill="#2d293e"/>
      <circle cx="36" cy="24" r="13" fill="#fff"/>
      <text x="29" y="30" font-size="16" fill="#2d293e">▣</text>
      <text x="57" y="18" font-size="11" font-weight="700" fill="#fff">전력대비감소 <tspan fill="#35d884">+4.5% ▲</tspan></text>
      <text x="57" y="37" font-size="17" font-weight="700" fill="#fff">4.5 <tspan font-size="10">kwh</tspan></text>
    </g>
    <g transform="translate(1140 0)">
      <rect width="350" height="49" rx="11" fill="#2d293e"/>
      <circle cx="36" cy="24" r="13" fill="#fff"/>
      <text x="28" y="30" font-size="16" fill="#2d293e">☁</text>
      <text x="57" y="18" font-size="11" font-weight="700" fill="#fff">co2배출량</text>
      <text x="57" y="37" font-size="17" font-weight="700" fill="#fff">0.76 <tspan font-size="10">ton</tspan></text>
    </g>
    <g transform="translate(1520 0)">
      <rect width="350" height="49" rx="11" fill="#2d293e"/>
      <circle cx="36" cy="24" r="13" fill="#fff"/>
      <text x="28" y="30" font-size="16" fill="#2d293e">🌿</text>
      <text x="57" y="18" font-size="11" font-weight="700" fill="#fff">co2감소량</text>
      <text x="57" y="37" font-size="17" font-weight="700" fill="#fff">0.08 <tspan font-size="10">ton</tspan></text>
    </g>
  </g>
  <text x="195" y="167" font-family="Arial, sans-serif" font-size="23" font-weight="700" fill="#0f172a">전체설비</text>
  <text x="284" y="164" font-family="Arial, sans-serif" font-size="12" fill="#758198">마지막 업데이트: 2026. 05. 19. 오전 8:32:44</text>
  <text x="1763" y="164" font-family="Arial, sans-serif" font-size="12" fill="#334155">전체: 5   가동중: 3   대기중: 1   정지: 0   Power OFF: 1</text>
  <g filter="url(#shadow)" font-family="Arial, sans-serif">
    <rect x="195" y="178" width="620" height="330" rx="8" fill="#fff"/>
    <text x="210" y="196" font-size="14" font-weight="700" fill="#111827">설비가동효율</text>
    <rect x="755" y="178" width="58" height="22" rx="6" fill="#eef0ff"/>
    <text x="764" y="194" font-size="12" fill="#5955ff">57.1%</text>
    <path d="M380 350 A130 130 0 0 1 640 350" fill="none" stroke="#ff4e42" stroke-width="46"/>
    <path d="M430 252 A130 130 0 0 1 510 222" fill="none" stroke="#ff9d1b" stroke-width="46"/>
    <path d="M510 222 A130 130 0 0 1 582 247" fill="none" stroke="#f4e83d" stroke-width="46"/>
    <path d="M582 247 A130 130 0 0 1 634 310" fill="none" stroke="#54c568" stroke-width="46"/>
    <path d="M634 310 A130 130 0 0 1 640 350" fill="none" stroke="#1fa590" stroke-width="46"/>
    <path d="M505 352 L528 252 L511 354 Z" fill="#29293b"/>
    <circle cx="507" cy="350" r="4" fill="#29293b"/>
    <rect x="824" y="178" width="1224" height="330" rx="8" fill="#fff"/>
    <text x="837" y="196" font-size="14" font-weight="700" fill="#111827">설비별 성능</text>
    <g font-size="13" fill="#334155">
      <text x="837" y="318">컴프레서1</text>
      <text x="837" y="345">컴프레서2</text>
      <text x="837" y="372">드럼프</text>
      <text x="837" y="399">팬타레이저</text>
    </g>
    <g stroke="#e8ecf1" stroke-width="6" stroke-linecap="round">
      <line x1="932" y1="314" x2="1988" y2="314"/>
      <line x1="932" y1="341" x2="1988" y2="341"/>
      <line x1="932" y1="368" x2="1988" y2="368"/>
      <line x1="932" y1="395" x2="1988" y2="395"/>
    </g>
    <g stroke="url(#bar)" stroke-width="6" stroke-linecap="round">
      <line x1="932" y1="314" x2="1078" y2="314"/>
      <line x1="932" y1="341" x2="1982" y2="341"/>
      <line x1="932" y1="368" x2="1088" y2="368"/>
      <line x1="932" y1="395" x2="1988" y2="395"/>
    </g>
  </g>
  <g filter="url(#shadow)" font-family="Arial, sans-serif">
    <rect x="195" y="518" width="620" height="330" rx="8" fill="#fff"/>
    <text x="228" y="550" font-size="15" font-weight="700" fill="#111827">OEE by Machine</text>
    <line x1="228" y1="553" x2="780" y2="553" stroke="#35c3cf" stroke-width="2"/>
    <g stroke="#edf0f4" stroke-width="1">
      <line x1="265" y1="592" x2="780" y2="592"/>
      <line x1="265" y1="616" x2="780" y2="616"/>
      <line x1="265" y1="640" x2="780" y2="640"/>
      <line x1="265" y1="664" x2="780" y2="664"/>
      <line x1="265" y1="688" x2="780" y2="688"/>
      <line x1="265" y1="712" x2="780" y2="712"/>
      <line x1="265" y1="736" x2="780" y2="736"/>
      <line x1="265" y1="760" x2="780" y2="760"/>
      <line x1="265" y1="784" x2="780" y2="784"/>
      <line x1="265" y1="806" x2="780" y2="806"/>
    </g>
    <rect x="313" y="599" width="34" height="207" rx="4" fill="#2899e8"/>
    <rect x="442" y="618" width="34" height="188" rx="4" fill="#2899e8"/>
    <rect x="571" y="616" width="34" height="190" rx="4" fill="#2899e8"/>
    <rect x="700" y="607" width="34" height="199" rx="4" fill="#2899e8"/>
    <g font-size="11" fill="#7b8494">
      <text x="326" y="825">A</text>
      <text x="455" y="825">B</text>
      <text x="584" y="825">C</text>
      <text x="713" y="825">D</text>
    </g>
    <rect x="824" y="518" width="1224" height="330" rx="8" fill="#fff"/>
    <text x="837" y="536" font-size="14" font-weight="700" fill="#111827">시간별 전력 사용량</text>
    <g stroke="#e6eaf0" stroke-width="1">
      <line x1="884" y1="558" x2="2032" y2="558"/>
      <line x1="884" y1="617" x2="2032" y2="617"/>
      <line x1="884" y1="676" x2="2032" y2="676"/>
      <line x1="884" y1="735" x2="2032" y2="735"/>
      <line x1="884" y1="794" x2="2032" y2="794"/>
      <line x1="1113" y1="558" x2="1113" y2="794"/>
      <line x1="1343" y1="558" x2="1343" y2="794"/>
      <line x1="1573" y1="558" x2="1573" y2="794"/>
      <line x1="1803" y1="558" x2="1803" y2="794"/>
    </g>
    <path d="M884 724 C980 730 1040 740 1113 730 C1208 710 1260 620 1343 630 C1420 610 1490 625 1573 624 C1670 608 1740 582 1803 588 C1895 572 1950 576 2032 570 L2032 794 L884 794 Z" fill="#3498db" opacity="0.13"/>
    <path d="M884 724 C980 730 1040 740 1113 730 C1208 710 1260 620 1343 630 C1420 610 1490 625 1573 624 C1670 608 1740 582 1803 588 C1895 572 1950 576 2032 570" fill="none" stroke="#3498db" stroke-width="3"/>
  </g>
</svg>
