<svg xmlns="http://www.w3.org/2000/svg" width="1475" height="1310" viewBox="0 0 1475 1310">
  <defs>
    <style>
      .bg{fill:#f5f7fa}.panel{fill:#fff;stroke:#dbe3ef;stroke-width:1}.dark{fill:#070b1a}.nav{fill:#fff;stroke:#d8e1ee}.txt{font-family:Arial,'Noto Sans KR',sans-serif;fill:#061329}.muted{fill:#58708f}.small{font-size:12px}.body{font-size:15px}.h1{font-size:26px;font-weight:700}.h2{font-size:20px;font-weight:700}.h3{font-size:16px;font-weight:700}.white{fill:#fff}.green{fill:#24d99a}.blue{fill:#2f80ed}.red{fill:#e11d48}.orange{fill:#f59e0b}.line{stroke:#dbe3ef;stroke-width:1}.box{fill:#f8fafc;stroke:#dbe3ef}.chip{fill:#fff;stroke:#dbe3ef}.done{fill:#dcfce7;stroke:#86efac}.warn{fill:#fff7ed;stroke:#fdba74}.wait{fill:#fefce8;stroke:#fde047}
    </style>
  </defs>
  <rect class="bg" width="1475" height="1310"/>

  <rect x="0" y="0" width="1475" height="136" fill="#fff" stroke="#dbe3ef"/>
  <rect x="20" y="20" width="44" height="44" rx="4" fill="#071124"/>
  <path d="M42 31l13 5v10c0 9-6 15-13 18-7-3-13-9-13-18V36z" fill="none" stroke="#20e0a1" stroke-width="2"/>
  <circle cx="42" cy="45" r="3" fill="#20e0a1"/>
  <text x="80" y="30" class="txt muted" font-size="13" letter-spacing="6" font-weight="700">SAFETY OPERATIONS</text>
  <text x="80" y="60" class="txt h1">산업안전관리 통합 관제</text>
  <text x="910" y="46" class="txt body">⌖  MZ Smart Safety Plant</text>
  <text x="1100" y="46" class="txt body">⌁  MQTT / CCTV / BLE 정상 수신</text>
  <text x="1332" y="46" class="txt body">05. 19. 오후 04:11 갱신</text>
  <g transform="translate(0 82)">
    <rect class="nav" x="0" y="0" width="82" height="38"/><text class="txt h3" x="18" y="25">통합 관제</text>
    <rect class="nav" x="90" y="0" width="64" height="38"/><text class="txt h3" x="111" y="25">작업자</text>
    <rect class="nav" x="162" y="0" width="66" height="38"/><text class="txt h3" x="182" y="25">CCTV</text>
    <rect class="nav" x="236" y="0" width="65" height="38"/><text class="txt h3" x="256" y="25">관리자</text>
    <rect class="nav" x="309" y="0" width="52" height="38"/><text class="txt h3" x="326" y="25">센서</text>
    <rect class="nav" x="369" y="0" width="52" height="38"/><text class="txt h3" x="386" y="25">비콘</text>
    <rect class="nav" x="429" y="0" width="89" height="38"/><text class="txt h3" x="451" y="25">게이트웨이</text>
    <rect class="nav" x="526" y="0" width="84" height="38"/><text class="txt h3" x="547" y="25">근접 알림</text>
    <rect class="nav" x="618" y="0" width="84" height="38"/><text class="txt h3" x="639" y="25">비상/SOP</text>
    <rect class="nav" x="710" y="0" width="82" height="38"/><text class="txt h3" x="732" y="25">비상 이력</text>
    <rect class="nav" x="800" y="0" width="80" height="38"/><text class="txt h3" x="821" y="25">감시 기록</text>
    <rect class="nav" x="888" y="0" width="52" height="38"/><text class="txt h3" x="905" y="25">로그</text>
  </g>

  <rect class="dark" x="1" y="162" width="798" height="295" rx="4"/>
  <text x="25" y="199" class="green body" font-weight="700">업무프로세스 기반 운영 화면</text>
  <text x="25" y="254" class="white" font-size="40" font-weight="800">작업자 등록부터 리포트까지 하나의 이벤트</text>
  <text x="25" y="296" class="white" font-size="40" font-weight="800">흐름으로 관리합니다.</text>
  <rect x="690" y="185" width="85" height="94" rx="4" fill="#0f172a" stroke="#334155"/>
  <text x="718" y="209" class="muted small">현재 위험</text><text x="728" y="231" class="muted small">도</text><text x="715" y="260" class="white red" font-size="28" font-weight="800">긴급</text>
  <g transform="translate(25 340)">
    <rect x="0" y="0" width="178" height="93" fill="#101626" stroke="#384152"/><text x="17" y="28" class="muted small">출입 작업자</text><text x="17" y="69" class="green" font-size="31" font-weight="800">3</text><text x="50" y="69" class="white small">명</text>
    <rect x="190" y="0" width="178" height="93" fill="#101626" stroke="#384152"/><text x="207" y="28" class="muted small">미종결 이벤트</text><text x="207" y="69" class="orange" font-size="31" font-weight="800">2</text><text x="240" y="69" class="white small">건</text>
    <rect x="380" y="0" width="178" height="93" fill="#101626" stroke="#384152"/><text x="397" y="28" class="muted small">대기 조치</text><text x="397" y="69" fill="#22d3ee" font-size="31" font-weight="800">2</text><text x="430" y="69" class="white small">건</text>
    <rect x="570" y="0" width="178" height="93" fill="#101626" stroke="#384152"/><text x="587" y="28" class="muted small">장치 온라인</text><text x="587" y="69" class="white" font-size="31" font-weight="800">3</text><text x="620" y="69" class="white small">대</text>
  </g>

  <rect class="panel" x="819" y="162" width="654" height="295" rx="4"/>
  <text x="840" y="202" class="txt h2">실시간 우선순위</text>
  <rect x="1403" y="184" width="48" height="24" rx="4" fill="#fff1f2" stroke="#fda4af"/><text x="1412" y="200" class="red small" font-weight="700">1긴급</text>
  <rect class="box" x="840" y="227" width="612" height="73"/><text x="856" y="258" class="txt h3">LPG 저장소 가스 누출 경보</text><text x="856" y="280" class="muted small">LPG 저장소 · 05. 19. 오전 09:07</text><rect x="1395" y="250" width="40" height="26" fill="#fff" stroke="#fca5a5"/><text x="1405" y="267" class="red small" font-weight="700">긴급</text>
  <rect class="box" x="840" y="313" width="612" height="73"/><text x="856" y="344" class="txt h3">안전모 미착용 확인 요청</text><text x="856" y="366" class="muted small">A동 출입구 · 05. 19. 오전 08:50</text><rect x="1395" y="337" width="40" height="26" fill="#fff" stroke="#fde68a"/><text x="1405" y="354" class="orange small" font-weight="700">주의</text>

  <rect class="panel" x="1" y="478" width="1472" height="300" rx="4"/>
  <text x="22" y="518" class="txt h2">표준 업무프로세스</text>
  <text x="1170" y="517" class="muted body">데이터 입력 → 판단 → 조치 → 리포트까지 추적</text>
  <g transform="translate(22 547)">
    <rect class="box" x="0" y="0" width="228" height="211"/><text x="38" y="78" class="txt h3">작업자 등록</text><text x="195" y="31" class="muted small" font-weight="700">STEP 1</text><text x="17" y="101" class="muted body">협력사, 작업유형, 건강 유의사항,</text><text x="17" y="122" class="muted body">착용 장비를 등록한다.</text><line class="line" x1="17" y1="150" x2="210" y2="150"/><text x="17" y="178" class="muted small">담당: 안전관리자</text><text x="17" y="196" class="muted small">SLA: 30분</text>
    <rect class="box" x="240" y="0" width="228" height="211"/><text x="257" y="78" class="txt h3">현장 출입</text><text x="435" y="31" class="muted small" font-weight="700">STEP 2</text><text x="257" y="101" class="muted body">작업허가와 PPE 착용 상태를 확인</text><text x="257" y="122" class="muted body">하고 구역 출입을 승인한다.</text><line class="line" x1="257" y1="150" x2="450" y2="150"/><text x="257" y="178" class="muted small">담당: 출입관리자</text><text x="257" y="196" class="muted small">SLA: 5분</text>
    <rect class="box" x="480" y="0" width="228" height="211"/><text x="497" y="78" class="txt h3">안전장구 감지</text><text x="675" y="31" class="muted small" font-weight="700">STEP 3</text><text x="497" y="101" class="muted body">CCTV/AI가 안전모, 안전조끼, 전도,</text><text x="497" y="122" class="muted body">화재 징후를 감지한다.</text><line class="line" x1="497" y1="150" x2="690" y2="150"/><text x="497" y="178" class="muted small">담당: AI 감시 모듈</text><text x="497" y="196" class="muted small">SLA: 1분</text>
    <rect class="box" x="720" y="0" width="228" height="211"/><text x="737" y="78" class="txt h3">위험 이벤트 발생</text><text x="915" y="31" class="muted small" font-weight="700">STEP 4</text><text x="737" y="101" class="muted body">가스, 근접, PPE 미착용, 화재 감지를</text><text x="737" y="122" class="muted body">표준 이벤트로 통합한다.</text><line class="line" x1="737" y1="150" x2="930" y2="150"/><text x="737" y="178" class="muted small">담당: 이벤트 엔진</text><text x="737" y="196" class="muted small">SLA: 1분</text>
    <rect class="box" x="960" y="0" width="228" height="211"/><text x="977" y="78" class="txt h3">알림 / 조치</text><text x="1155" y="31" class="muted small" font-weight="700">STEP 5</text><text x="977" y="101" class="muted body">담당자 알림, 비콘 진동, 현장 방송,</text><text x="977" y="122" class="muted body">SOP 조치를 진행한다.</text><line class="line" x1="977" y1="150" x2="1170" y2="150"/><text x="977" y="178" class="muted small">담당: 현장 관리자</text><text x="977" y="196" class="muted small">SLA: 10분</text>
    <rect class="box" x="1200" y="0" width="228" height="211"/><text x="1217" y="78" class="txt h3">이력 / 리포트</text><text x="1395" y="31" class="muted small" font-weight="700">STEP 6</text><text x="1217" y="101" class="muted body">이벤트, 조치, 감지 로그를 분석해</text><text x="1217" y="122" class="muted body">재발 방지 보고서를 만든다.</text><line class="line" x1="1217" y1="150" x2="1410" y2="150"/><text x="1217" y="178" class="muted small">담당: 안전책임자</text><text x="1217" y="196" class="muted small">SLA: 1440분</text>
  </g>

  <rect class="panel" x="1" y="798" width="667" height="510" rx="4"/>
  <text x="22" y="839" class="txt h2">구역별 위험 상태</text>
  <g transform="translate(22 864)">
    <rect class="box" x="0" y="0" width="624" height="154"/><text x="16" y="35" class="txt h3">A동 출입구</text><text x="16" y="58" class="muted body">작업자 출입, PPE 확인, BLE 태그 매칭 구역</text><rect x="568" y="26" width="39" height="26" fill="#f8fafc" stroke="#cbd5e1"/><text x="579" y="43" class="txt small">보통</text><rect x="16" y="78" width="192" height="60" fill="#f8fafc"/><text x="30" y="101" class="muted small">작업자</text><text x="30" y="124" class="txt h2">1</text><rect x="216" y="78" width="192" height="60" fill="#f8fafc"/><text x="230" y="101" class="muted small">장치</text><text x="230" y="124" class="txt h2">2</text><rect x="416" y="78" width="192" height="60" fill="#f8fafc"/><text x="430" y="101" class="muted small">감지</text><text x="430" y="124" class="txt h2">1</text>
    <rect class="box" x="0" y="166" width="624" height="154"/><text x="16" y="201" class="txt h3">LPG 저장소</text><text x="16" y="224" class="muted body">가스 누출 센서와 CCTV 화재 감시가 필요한 고위험 구역</text><rect x="568" y="192" width="39" height="26" fill="#fff1f2" stroke="#fca5a5"/><text x="579" y="209" class="red small">긴급</text><rect x="16" y="244" width="192" height="60" fill="#f8fafc"/><text x="30" y="267" class="muted small">작업자</text><text x="30" y="290" class="txt h2">1</text><rect x="216" y="244" width="192" height="60" fill="#f8fafc"/><text x="230" y="267" class="muted small">장치</text><text x="230" y="290" class="txt h2">1</text><rect x="416" y="244" width="192" height="60" fill="#f8fafc"/><text x="430" y="267" class="muted small">감지</text><text x="430" y="290" class="txt h2">1</text>
    <rect class="box" x="0" y="332" width="624" height="154"/><text x="16" y="367" class="txt h3">크레인 작업 반경</text><text x="16" y="390" class="muted body">크레인, 지게차, 작업자 근접 위험 감시 구역</text><rect x="568" y="358" width="39" height="26" fill="#fffbeb" stroke="#fcd34d"/><text x="579" y="375" class="orange small">높음</text><rect x="16" y="410" width="192" height="60" fill="#f8fafc"/><text x="30" y="433" class="muted small">작업자</text><text x="30" y="456" class="txt h2">1</text><rect x="216" y="410" width="192" height="60" fill="#f8fafc"/><text x="230" y="433" class="muted small">장치</text><text x="230" y="456" class="txt h2">1</text><rect x="416" y="410" width="192" height="60" fill="#f8fafc"/><text x="430" y="433" class="muted small">감지</text><text x="430" y="456" class="txt h2">1</text>
  </g>

  <rect class="panel" x="688" y="798" width="785" height="510" rx="4"/>
  <text x="709" y="839" class="txt h2">선택 이벤트 조치판</text>
  <rect x="1400" y="821" width="51" height="26" fill="#eff6ff" stroke="#93c5fd"/><text x="1410" y="838" class="blue small" font-weight="700">조치중</text>
  <text x="745" y="885" class="txt" font-size="22" font-weight="800">LPG 저장소 가스 누출 경보</text>
  <text x="745" y="906" class="muted body">EVT-20260519-001 · 가스 누출</text>
  <text x="709" y="940" class="txt body">센서 기준치를 초과해 SOP 기반 초동 조치가 필요합니다.</text>
  <line class="line" x1="709" y1="964" x2="1452" y2="964"/>
  <rect x="709" y="981" width="239" height="55" fill="#f8fafc"/><text x="723" y="1003" class="muted small">구역</text><text x="723" y="1025" class="txt h3">LPG 저장소</text>
  <rect x="961" y="981" width="239" height="55" fill="#f8fafc"/><text x="975" y="1003" class="muted small">담당</text><text x="975" y="1025" class="txt h3">안전관리자</text>
  <rect x="1212" y="981" width="239" height="55" fill="#f8fafc"/><text x="1226" y="1003" class="muted small">발생</text><text x="1226" y="1025" class="txt h3">05. 19. 오전 09:07</text>
  <text x="709" y="1071" class="txt h3">SOP 조치</text>
  <rect class="done" x="709" y="1089" width="743" height="60"/><circle cx="736" cy="1119" r="9" fill="#10b981"/><text x="761" y="1114" class="txt h3">현장 담당자와 안전책임자에게 긴급 알림 전송</text><text x="761" y="1132" class="muted small">관제실 · 1분 내 처리</text><text x="1395" y="1125" fill="#16a34a" font-size="12" font-weight="700">완료</text>
  <rect class="warn" x="709" y="1158" width="743" height="60"/><circle cx="736" cy="1188" r="9" fill="#f97316"/><text x="761" y="1183" class="txt h3">LPG 저장소 주변 작업자 대피 확인</text><text x="761" y="1201" class="muted small">현장반장 · 5분 내 처리</text><text x="1392" y="1194" class="blue small" font-weight="700">조치중</text>
  <rect class="wait" x="709" y="1227" width="743" height="60"/><circle cx="736" cy="1257" r="9" fill="#f59e0b"/><text x="761" y="1252" class="txt h3">밸브 차단 및 환기 설비 가동</text><text x="761" y="1270" class="muted small">설비담당 · 10분 내 처리</text><text x="1396" y="1263" class="orange small" font-weight="700">대기</text>
</svg>
