<svg xmlns="http://www.w3.org/2000/svg" viewBox="0 0 1620 940" role="img" aria-labelledby="title desc">
  <title id="title">Sensor network architecture</title>
  <desc id="desc">Sensor board sends temperature, humidity, pressure and dust data to MQTT and web servers, then to mobile and PC trend storage.</desc>
  <defs>
    <marker id="arrow" markerWidth="12" markerHeight="12" refX="10" refY="6" orient="auto">
      <path d="M0 0 L12 6 L0 12 Z" fill="#111"/>
    </marker>
    <linearGradient id="internet" x1="0" y1="0" x2="1" y2="1">
      <stop offset="0" stop-color="#56a3d9"/>
      <stop offset="0.48" stop-color="#1c5f9b"/>
      <stop offset="1" stop-color="#0e244e"/>
    </linearGradient>
    <filter id="softShadow" x="-20%" y="-20%" width="140%" height="150%">
      <feDropShadow dx="0" dy="12" stdDeviation="11" flood-color="#111827" flood-opacity="0.18"/>
    </filter>
  </defs>
  <rect width="1620" height="940" fill="#fff"/>

  <text x="98" y="170" font-family="Arial, sans-serif" font-size="42" fill="#111">Web 서버</text>
  <text x="88" y="382" font-family="Arial, sans-serif" font-size="42" fill="#111">MQTT 서버</text>
  <path d="M198 215v108" stroke="#80786c" stroke-width="4" marker-start="url(#arrow)" marker-end="url(#arrow)" opacity="0.8"/>
  <path d="M205 410v82" stroke="#80786c" stroke-width="4" marker-start="url(#arrow)" marker-end="url(#arrow)" opacity="0.8"/>

  <g transform="translate(328 68)" filter="url(#softShadow)">
    <circle cx="88" cy="88" r="82" fill="url(#internet)"/>
    <path d="M37 86c17-42 61-59 101-38 42 22 43 80-3 110" fill="none" stroke="#fff" stroke-width="5" opacity="0.92"/>
    <path d="M31 88c25 26 56 38 111 17" fill="none" stroke="#fff" stroke-width="5" opacity="0.92"/>
    <path d="M92 18c34 41 29 92-7 144" fill="none" stroke="#fff" stroke-width="4" opacity="0.86"/>
    <path d="M58 39c31-5 72 7 101 38" fill="none" stroke="#fff" stroke-width="4" opacity="0.86"/>
    <circle cx="65" cy="60" r="6" fill="#fff"/>
    <circle cx="98" cy="42" r="6" fill="#fff"/>
    <circle cx="124" cy="60" r="6" fill="#fff"/>
    <circle cx="89" cy="86" r="6" fill="#fff"/>
    <text x="88" y="118" text-anchor="middle" font-family="Arial, sans-serif" font-size="26" font-weight="700" fill="#fff">INTERNET</text>
  </g>

  <g transform="translate(34 506)" filter="url(#softShadow)">
    <rect x="0" y="52" width="440" height="206" rx="8" fill="#17a97d"/>
    <rect x="16" y="80" width="60" height="58" rx="5" fill="#1f2937"/>
    <rect x="90" y="78" width="46" height="42" fill="#334155"/>
    <rect x="156" y="76" width="66" height="48" fill="#2dd4bf"/>
    <rect x="246" y="70" width="48" height="58" fill="#f8fafc" stroke="#be185d" stroke-width="4"/>
    <rect x="330" y="75" width="54" height="46" fill="#f8fafc" stroke="#7c3aed" stroke-width="4"/>
    <rect x="18" y="170" width="392" height="54" fill="#f97316"/>
    <g fill="#e5e7eb">
      <rect x="33" y="182" width="24" height="28" rx="2"/>
      <rect x="67" y="182" width="24" height="28" rx="2"/>
      <rect x="101" y="182" width="24" height="28" rx="2"/>
      <rect x="135" y="182" width="24" height="28" rx="2"/>
      <rect x="169" y="182" width="24" height="28" rx="2"/>
      <rect x="203" y="182" width="24" height="28" rx="2"/>
      <rect x="237" y="182" width="24" height="28" rx="2"/>
      <rect x="271" y="182" width="24" height="28" rx="2"/>
      <rect x="305" y="182" width="24" height="28" rx="2"/>
      <rect x="339" y="182" width="24" height="28" rx="2"/>
    </g>
    <circle cx="415" cy="240" r="8" fill="#fde047"/>
    <text x="50" y="26" font-family="Arial, sans-serif" font-size="15" fill="#2f855a">RS232</text>
    <text x="162" y="26" font-family="Arial, sans-serif" font-size="15" fill="#2563eb">RS485</text>
  </g>

  <text x="68" y="835" font-family="Arial, sans-serif" font-size="42" fill="#111">온습도 압력 미세먼지</text>
  <text x="68" y="888" font-family="Arial, sans-serif" font-size="42" fill="#111">센서보드</text>

  <path d="M492 150h208v385h34" stroke="#111" stroke-width="8" fill="none" marker-end="url(#arrow)"/>
  <path d="M492 150h196" stroke="#111" stroke-width="8" marker-end="url(#arrow)"/>

  <g transform="translate(716 40)">
    <rect x="0" y="0" width="136" height="216" fill="#f3f4f6"/>
    <rect x="20" y="10" width="96" height="196" rx="7" fill="#24414b"/>
    <rect x="32" y="62" width="72" height="118" fill="#68bfd5"/>
    <rect x="50" y="26" width="28" height="6" rx="3" fill="#94a3b8"/>
    <circle cx="68" cy="190" r="10" fill="#a7adc0"/>
  </g>
  <text x="962" y="52" font-family="Arial, sans-serif" font-size="38" fill="#111">휴대폰 전송</text>

  <g transform="translate(762 214)" filter="url(#softShadow)">
    <rect x="460" y="0" width="330" height="640" rx="48" fill="#0b0b0d"/>
    <rect x="500" y="45" width="250" height="455" rx="24" fill="#3d3d42"/>
    <rect x="548" y="68" width="150" height="66" rx="10" fill="#050505"/>
    <rect x="576" y="88" width="94" height="28" fill="#e5e7eb"/>
    <circle cx="650" cy="542" r="31" fill="#070707"/>
    <circle cx="650" cy="542" r="13" fill="#fde047"/>

    <rect x="0" y="128" width="590" height="390" rx="36" fill="#060606"/>
    <rect x="28" y="160" width="532" height="300" rx="18" fill="#f3f4f6"/>
    <rect x="48" y="180" width="492" height="260" fill="#78b9e6"/>
    <path d="M204 518h120l22 84H182z" fill="#7b7b80"/>
    <rect x="166" y="588" width="180" height="46" rx="8" fill="#070707"/>
    <rect x="186" y="606" width="140" height="14" fill="#e5e7eb"/>
  </g>
  <text x="780" y="918" font-family="Arial, sans-serif" font-size="42" fill="#111">PC 이력 및 트렌드 저장</text>
</svg>
